<svg width="241" height="169" viewBox="0 0 241 169" fill="none" xmlns="http://www.w3.org/2000/svg">
<mask id="path-1-inside-1_2350_379" fill="white">
<path d="M0.244629 0.5H240.245V168.5H0.244629V0.5Z"/>
</mask>
<path d="M0.244629 0.5H240.245V168.5H0.244629V0.5Z" fill="#A0C665"/>
<path d="M0.244629 3.46954H240.245V-2.46954H0.244629V3.46954Z" fill="#858585" fill-opacity="0.2" mask="url(#path-1-inside-1_2350_379)"/>
<path d="M141.011 96.0862H141.144L141.153 96.0738C143.405 96.035 144.965 95.0262 145.964 94.0154C146.978 92.9886 147.418 91.9555 147.434 91.9168L147.435 91.9148C147.576 91.5671 147.462 91.1662 147.154 90.9447L147.153 90.9441L138.411 84.7102L138.411 84.7101C137.133 83.8001 135.959 82.7412 134.919 81.5671L129.884 75.8748L129.884 75.8747C128.382 74.1781 126.219 73.2036 123.952 73.2036H115.564C113.254 73.2036 111.064 74.2093 109.557 75.9641L109.557 75.9641L103.418 83.1229C103.418 83.1229 103.418 83.1229 103.418 83.123C102.953 83.6647 102.426 84.1508 101.846 84.5633L101.845 84.5637L92.3365 91.354L92.3365 91.354L92.3347 91.3553C92.1579 91.4839 92.0387 91.6774 92.0056 91.8939C91.968 92.1182 92.0287 92.3417 92.1638 92.5151C95.5491 96.9211 100.481 95.9151 100.702 95.8659L100.702 95.866L100.709 95.8644C100.784 95.8456 100.86 95.8195 100.938 95.7751L100.939 95.7742L107.166 92.161L107.167 92.1599C107.55 91.9336 107.688 91.4401 107.459 91.048L107.458 91.0467C107.23 90.6615 106.737 90.5324 106.349 90.7537L106.347 90.7547L100.242 94.2965C99.5805 94.4055 96.459 94.7461 94.0004 92.1681L102.786 85.8997C102.786 85.8996 102.786 85.8996 102.786 85.8995C103.476 85.4098 104.1 84.8358 104.65 84.1971L104.651 84.1967L110.79 77.0379L110.79 77.0378C111.987 75.6419 113.727 74.8429 115.564 74.8429H123.952C125.753 74.8429 127.471 75.6167 128.664 76.9655C128.664 76.9655 128.664 76.9656 128.664 76.9656L133.698 82.6576C133.698 82.6576 133.698 82.6577 133.698 82.6577C134.816 83.9281 136.086 85.0689 137.463 86.0498L145.627 91.8685C144.998 92.8839 143.351 94.8269 140.121 94.3992L133.993 91.0011C133.993 91.001 133.993 91.0009 133.992 91.0007C133.598 90.7796 133.103 90.9199 132.885 91.3158C132.663 91.7128 132.811 92.2063 133.2 92.4227L133.2 92.4228L139.457 95.8914C139.549 95.9453 139.644 95.971 139.729 95.9851L139.732 95.9855C140.18 96.0551 140.607 96.0862 141.011 96.0862Z" fill="white" stroke="white" stroke-width="0.5"/>
<path d="M107.721 115.036H105.386C103.838 115.036 102.307 114.63 100.964 113.856C99.1875 112.837 98.0503 111.005 97.9209 108.959C97.7915 106.912 98.6937 104.955 100.328 103.721C100.328 103.721 100.328 103.721 100.328 103.721L110.762 95.8362C111.564 95.2291 112.046 94.265 112.046 93.257V85.6358C112.046 85.1856 112.41 84.8218 112.86 84.8218C113.31 84.8218 113.674 85.1856 113.674 85.6358V93.257C113.674 94.7715 112.953 96.2215 111.744 97.1337L107.721 115.036ZM107.721 115.036C108.171 115.036 108.535 114.672 108.535 114.222C108.535 113.772 108.171 113.408 107.721 113.408H105.386C104.121 113.408 102.874 113.074 101.776 112.445C100.477 111.697 99.6405 110.355 99.5479 108.856C99.4553 107.357 100.114 105.923 101.31 105.018C101.31 105.018 101.31 105.018 101.31 105.018L111.744 97.1338L107.721 115.036Z" fill="white" stroke="white" stroke-width="0.5"/>
<path d="M110.042 108.566L110.042 108.566L109.384 106.92C109.384 106.92 109.384 106.919 109.384 106.919L109.384 106.919L110.042 108.566ZM110.042 108.566C111.23 111.53 114.059 113.449 117.256 113.449H139.013V113.453H139.263C141.909 113.453 144.062 111.3 144.062 108.654C144.062 106.706 143.1 104.892 141.49 103.796L141.49 103.796L130.233 96.1372L130.233 96.137M110.042 108.566L130.233 96.137M130.233 96.137C129.376 95.5557 128.865 94.588 128.865 93.5541V84.989C128.865 84.5389 128.501 84.175 128.051 84.175C127.601 84.175 127.237 84.5389 127.237 84.989V93.5541C127.237 95.1295 128.015 96.598 129.316 97.483C129.316 97.4831 129.316 97.4831 129.316 97.4831L140.573 105.142L130.233 96.137ZM127.074 102.368L110.795 104.511L127.074 102.368ZM127.987 103.069C127.931 102.621 127.518 102.308 127.074 102.368L140.573 105.142C141.735 105.934 142.43 107.248 142.43 108.654C142.43 110.403 141.008 111.825 139.259 111.825H117.252C114.727 111.825 112.491 110.309 111.551 107.963L110.894 106.318C110.894 106.318 110.894 106.318 110.894 106.318C110.882 106.288 110.882 106.265 110.886 106.246C110.889 106.225 110.898 106.204 110.908 106.184C110.912 106.178 110.921 106.164 110.937 106.151C110.951 106.14 110.972 106.128 111.007 106.123C111.007 106.123 111.007 106.123 111.007 106.123L127.284 103.98C127.284 103.98 127.285 103.98 127.285 103.98C127.732 103.925 128.045 103.512 127.987 103.069Z" fill="white" stroke="white" stroke-width="0.5"/>
<path d="M119.831 68.8911H120.081V68.8834C124.278 68.7509 127.65 65.2966 127.65 61.0687C127.65 56.7571 124.143 53.25 119.831 53.25C115.52 53.25 112.013 56.761 112.013 61.0724C112.013 65.384 115.52 68.8911 119.831 68.8911ZM113.641 61.0687C113.641 57.6573 116.416 54.878 119.831 54.878C123.243 54.878 126.022 57.6574 126.022 61.0687C126.022 64.4799 123.243 67.2593 119.831 67.2593C116.42 67.2593 113.641 64.4799 113.641 61.0687Z" fill="white" stroke="white" stroke-width="0.5"/>
</svg>
