<svg width="240" height="169" viewBox="0 0 240 169" fill="none" xmlns="http://www.w3.org/2000/svg">
<mask id="path-1-inside-1_2351_468" fill="white">
<path d="M0 0.5H240V168.5H0V0.5Z"/>
</mask>
<path d="M0 0.5H240V168.5H0V0.5Z" fill="#A0C665"/>
<path d="M0 3.46954H240V-2.46954H0V3.46954Z" fill="#858585" fill-opacity="0.2" mask="url(#path-1-inside-1_2351_468)"/>
<path d="M100.76 78.9751C100.932 79.4171 101.431 79.6343 101.872 79.4625C102.314 79.2902 102.532 78.7912 102.36 78.3501L102.36 78.3498C101.619 76.4571 101.243 74.4189 101.243 72.2941C101.243 62.7404 109.017 54.9696 118.571 54.9696C128.125 54.9696 135.896 62.7404 135.896 72.2941C135.896 74.5751 135.463 76.7579 134.614 78.7875C134.431 79.224 134.637 79.7278 135.073 79.9112C135.18 79.9563 135.294 79.9796 135.406 79.9796C135.739 79.9796 136.059 79.7794 136.197 79.4526L136.197 79.4522C137.137 77.2089 137.611 74.8018 137.611 72.2941C137.611 61.7934 129.068 53.25 118.567 53.25C108.066 53.25 99.5229 61.7934 99.5229 72.2941C99.5229 74.6331 99.9389 76.8797 100.76 78.9751ZM100.76 78.9751C100.76 78.975 100.76 78.9749 100.76 78.9747L100.993 78.884L100.76 78.9752C100.76 78.9751 100.76 78.9751 100.76 78.9751ZM100.993 72.2941C100.993 74.4487 101.375 76.518 102.127 78.4409L134.845 78.884C135.707 76.8229 136.146 74.6073 136.146 72.2941C136.146 62.6023 128.263 54.7196 118.571 54.7196C108.879 54.7196 100.993 62.6023 100.993 72.2941Z" fill="white" stroke="white" stroke-width="0.5"/>
<path d="M110.794 113.34H111.044V113.33C113.623 113.297 116.106 112.754 118.434 111.708L118.434 111.708C118.864 111.513 119.059 111.008 118.864 110.573L118.864 110.572C118.669 110.143 118.161 109.947 117.729 110.142C115.55 111.119 113.219 111.616 110.794 111.616C101.24 111.616 93.4696 103.845 93.4696 94.2916C93.4696 88.201 96.7359 82.4938 101.993 79.4003L101.994 79.4C102.4 79.1595 102.539 78.6326 102.297 78.2241C102.057 77.8178 101.53 77.6792 101.122 77.9205C95.342 81.3233 91.75 87.5967 91.75 94.2957C91.75 104.796 100.293 113.34 110.794 113.34Z" fill="white" stroke="white" stroke-width="0.5"/>
<path d="M128.206 114.86H128.456V114.855C138.842 114.72 147.25 106.229 147.25 95.8121C147.25 88.2038 142.735 81.3407 135.745 78.3294C135.309 78.1401 134.804 78.3416 134.615 78.7763C134.426 79.2127 134.627 79.7173 135.062 79.9061L135.063 79.9064C141.423 82.6476 145.53 88.8911 145.53 95.8121C145.53 105.366 137.76 113.137 128.206 113.137C124.734 113.137 121.401 112.127 118.56 110.216C118.17 109.951 117.631 110.055 117.367 110.451C117.105 110.844 117.206 111.378 117.602 111.643C120.725 113.748 124.392 114.86 128.206 114.86Z" fill="white" stroke="white" stroke-width="0.5"/>
<path d="M117.703 111.24C117.703 111.716 118.087 112.1 118.563 112.1C119.038 112.1 119.423 111.716 119.423 111.24V54.1098C119.423 53.6343 119.038 53.25 118.563 53.25C118.087 53.25 117.703 53.6343 117.703 54.1098V111.24Z" fill="white" stroke="white" stroke-width="0.5"/>
<path d="M117.988 78.4545L117.988 78.4545L117.99 78.4561C118.154 78.6035 118.36 78.6785 118.567 78.6785C118.804 78.6785 119.032 78.5799 119.201 78.4003L119.201 78.4003L119.204 78.3967C119.519 78.0474 119.496 77.5042 119.147 77.1833L119.146 77.1829L112.418 71.0361L112.418 71.0361L112.417 71.035C112.069 70.7209 111.52 70.7412 111.202 71.0939C110.887 71.4432 110.91 71.9864 111.259 72.3073L111.26 72.3077L117.988 78.4545Z" fill="white" stroke="white" stroke-width="0.5"/>
<path d="M117.896 97.0985L117.897 97.0997C118.068 97.3105 118.315 97.4199 118.567 97.4199H118.571C118.761 97.4199 118.95 97.3563 119.108 97.2324L119.108 97.2324L119.11 97.2307L130.204 88.3236L130.205 88.3226C130.57 88.0259 130.635 87.4877 130.336 87.1147L130.336 87.1147L130.335 87.1132C130.038 86.7479 129.5 86.6837 129.127 86.9821L129.127 86.9824L118.028 95.8895L118.028 95.8895L118.027 95.8905C117.662 96.1872 117.598 96.7255 117.896 97.0985L117.896 97.0985Z" fill="white" stroke="white" stroke-width="0.5"/>
<path d="M114.477 105.713L114.478 105.709C114.721 105.707 114.959 105.603 115.128 105.4C115.432 105.039 115.387 104.494 115.019 104.19C115.019 104.189 115.019 104.189 115.019 104.189L110.93 100.779L110.929 100.778C110.797 100.669 110.632 100.601 110.461 100.584L110.461 100.584L110.459 100.584L102.96 99.901C102.96 99.901 102.96 99.901 102.959 99.9009C102.486 99.8552 102.07 100.207 102.024 100.679L102.024 100.679L102.024 100.682C101.984 101.153 102.326 101.574 102.804 101.614C102.805 101.614 102.805 101.614 102.805 101.614L110.039 102.274L113.926 105.512C114.089 105.651 114.285 105.713 114.477 105.713Z" fill="white" stroke="white" stroke-width="0.5"/>
<path d="M110.542 102.302H110.388C110.288 102.302 110.183 102.286 110.08 102.244C109.638 102.076 109.42 101.578 109.584 101.136L109.585 101.134L109.585 101.134L110.806 97.9297L109.882 97.2537C109.882 97.2537 109.882 97.2537 109.882 97.2537C109.499 96.9737 109.412 96.4354 109.694 96.0506C109.974 95.6679 110.512 95.5808 110.897 95.8622C110.897 95.8622 110.897 95.8622 110.897 95.8623L112.352 96.9229C112.352 96.9229 112.352 96.923 112.352 96.923L110.542 102.302ZM110.542 102.302L110.554 102.278L110.542 102.302Z" fill="white" stroke="white" stroke-width="0.5"/>
<path d="M124.466 106.724L124.466 106.724L124.465 106.725C124.146 107.072 124.16 107.616 124.512 107.94C124.611 108.032 124.725 108.096 124.846 108.132V108.173H125.096C125.326 108.173 125.555 108.081 125.726 107.899L125.727 107.898L130.666 102.572L135.602 101.475C136.066 101.372 136.359 100.914 136.256 100.449C136.152 99.9855 135.694 99.6929 135.23 99.796L130.032 100.95C129.859 100.986 129.706 101.08 129.59 101.201L129.59 101.201L129.588 101.203L124.466 106.724Z" fill="white" stroke="white" stroke-width="0.5"/>
<path d="M130.662 102.525C131.069 102.278 131.194 101.75 130.948 101.346L130.948 101.344L128.813 97.8605L128.814 97.8605L128.813 97.8592C128.608 97.5301 128.214 97.3735 127.839 97.4827C127.839 97.4827 127.839 97.4827 127.839 97.4828L126.112 97.9826L126.112 97.9826L126.112 97.9827C125.658 98.1149 125.395 98.5908 125.527 99.048L125.527 99.048L125.527 99.0488C125.659 99.5026 126.135 99.7653 126.592 99.6339L126.592 99.6339L126.593 99.6336L127.694 99.313L129.484 102.235C129.554 102.351 129.646 102.443 129.752 102.511L129.611 102.652H130.214C130.367 102.652 130.523 102.612 130.662 102.525Z" fill="white" stroke="white" stroke-width="0.5"/>
<path d="M112.311 92.4478H112.561V92.4067C112.758 92.3471 112.935 92.217 113.049 92.0257C113.296 91.618 113.163 91.0912 112.757 90.8456L112.756 90.8451L106.53 87.1085L104.44 82.5043L104.44 82.5043L104.439 82.5019C104.24 82.0759 103.738 81.8794 103.301 82.0745L103.301 82.0745L103.298 82.0762C102.872 82.2749 102.675 82.7821 102.871 83.2149L102.871 83.2151L105.073 88.0628C105.145 88.2274 105.266 88.3581 105.411 88.447L105.411 88.447L105.413 88.4483L111.869 92.3267L111.869 92.3267L111.872 92.3283C112.008 92.4077 112.161 92.4478 112.311 92.4478Z" fill="white" stroke="white" stroke-width="0.5"/>
<path d="M102.975 92.5147L102.975 92.5147L102.976 92.5161C103.088 92.7229 103.272 92.8674 103.482 92.9314V92.9726H103.732C103.873 92.9726 104.01 92.9373 104.137 92.871L104.137 92.871L104.139 92.8699C104.556 92.6468 104.718 92.1261 104.494 91.7066C104.494 91.7065 104.494 91.7064 104.494 91.7063L103.957 90.696L106.449 88.3388L106.45 88.3384C106.792 88.0128 106.811 87.4684 106.483 87.1231C106.157 86.7805 105.613 86.7617 105.268 87.0894C105.268 87.0895 105.268 87.0896 105.268 87.0897L102.297 89.8942L102.297 89.8942L102.295 89.8956C102.016 90.1634 101.946 90.5816 102.13 90.9252C102.13 90.9252 102.13 90.9252 102.13 90.9252C102.13 90.9253 102.13 90.9254 102.13 90.9254L102.975 92.5147Z" fill="white" stroke="white" stroke-width="0.5"/>
<path d="M117.959 67.2224C118.126 67.3888 118.348 67.4745 118.567 67.4745C118.785 67.4745 119.008 67.3888 119.175 67.2224L123.853 62.5439C124.192 62.2095 124.19 61.665 123.855 61.3286C123.52 60.989 122.975 60.9914 122.638 61.3278L117.96 66.0063C117.62 66.341 117.623 66.8861 117.959 67.2224Z" fill="white" stroke="white" stroke-width="0.5"/>
<path d="M118.567 83.7237H118.817V83.6834C118.933 83.6488 119.043 83.5888 119.141 83.5012L119.141 83.5012L123.82 79.3017L123.82 79.3017L123.822 79.2998C124.17 78.9802 124.199 78.4423 123.885 78.0878L123.885 78.0878L123.883 78.0863C123.567 77.7351 123.023 77.7085 122.67 78.022L122.67 78.022L122.669 78.023L117.99 82.2225L117.99 82.2225L117.988 82.2244C117.639 82.544 117.61 83.0818 117.925 83.4363L117.925 83.4363L117.927 83.4386C118.097 83.6258 118.331 83.7237 118.567 83.7237Z" fill="white" stroke="white" stroke-width="0.5"/>
</svg>
