<svg width="240" height="169" fill="none" xmlns="http://www.w3.org/2000/svg"><mask id="path-1-inside-1_2351_470" fill="white"><path d="M0 0.5H240V168.5H0V0.5Z"/></mask><path d="M0 0.5H240V168.5H0V0.5Z" fill="#A0C665"/><path d="M0 3.46954H240V-2.46954H0V3.46954Z" fill="#858585" fill-opacity="0.2" mask="url(#path-1-inside-1_2351_470)"/><path d="M90.0442 95.9565L90.0443 95.9565L90.0442 95.9565ZM98.8768 93.2032L105.953 111.727L99.4169 114.742L99.4159 114.742C99.0049 114.934 98.8216 115.423 99.0144 115.837C99.1532 116.141 99.4521 116.317 99.7634 116.317C99.8822 116.317 100.002 116.289 100.108 116.241L100.11 116.24L107.346 112.9L107.346 112.9C107.738 112.718 107.924 112.262 107.77 111.856L107.77 111.855L100.116 91.8177L100.116 91.8177L100.115 91.8151C100.033 91.608 99.8743 91.443 99.6707 91.355L99.6708 91.3549L99.6633 91.3519C99.4593 91.2714 99.2315 91.2704 99.0285 91.3528L99.0285 91.3528L99.027 91.3534L90.2598 94.9731L90.2598 94.9731L90.2582 94.9738C89.8422 95.1489 89.6367 95.6273 89.8134 96.0525L89.8139 96.0535C89.9889 96.4692 90.471 96.6752 90.8927 96.4982C90.893 96.4981 90.8933 96.498 90.8936 96.4979L98.8768 93.2032Z" fill="white" stroke="white" stroke-width="0.5"/><path d="M106.474 110.029H105.871C105.513 110.029 105.188 109.797 105.079 109.442L105.079 109.441C104.946 109.005 105.195 108.543 105.634 108.411L105.634 108.411L110.608 106.922C111.625 106.617 112.677 106.433 113.737 106.374L113.738 106.374L129.786 105.507L129.787 105.507C131.624 105.409 133.386 104.788 134.883 103.718L135.028 103.922L134.883 103.718L147.603 94.6248L106.474 110.029ZM106.474 110.029L106.356 109.911L111.074 108.499C111.969 108.232 112.89 108.07 113.822 108.021L113.822 108.021L129.871 107.154L129.871 107.154C132.022 107.036 134.087 106.314 135.838 105.062C135.838 105.061 135.838 105.061 135.838 105.061L148.558 95.968L148.413 95.7647L148.558 95.968C150.367 94.6749 150.789 92.1506 149.499 90.3416L149.499 90.3416C148.259 88.6022 145.87 88.1318 144.061 89.2694L144.061 89.2694L131.675 97.0619C131.192 93.7987 128.373 91.2846 124.975 91.2846H111.663C109.276 91.2846 106.933 91.9301 104.883 93.1508L104.883 93.1508L100.565 95.7226L100.565 95.7226L100.563 95.7236C100.173 95.9595 100.047 96.4647 100.278 96.8554L100.278 96.8554L100.279 96.8576C100.515 97.2472 101.02 97.374 101.411 97.1429L101.411 97.1425L105.73 94.5707L105.73 94.5707C107.526 93.4998 109.578 92.9362 111.667 92.9362H124.979C127.677 92.9362 129.896 95.0362 130.087 97.6873M106.474 110.029L130.087 97.6873M130.087 97.6873H116.734C116.277 97.6873 115.908 98.0564 115.908 98.513C115.908 98.9697 116.277 99.3388 116.734 99.3388H130.932C131.097 99.3388 131.251 99.2897 131.378 99.2073C131.379 99.2069 131.379 99.2065 131.38 99.2061L144.945 90.6678C146.016 89.997 147.427 90.2754 148.16 91.3035L148.16 91.3036C148.92 92.3692 148.67 93.8601 147.604 94.6247L130.087 97.6873Z" fill="white" stroke="white" stroke-width="0.5"/><path d="M96.6081 95.2042L96.5072 94.9755C96.0835 95.1626 95.9029 95.6484 96.0833 96.0638L96.0833 96.0638L96.0839 96.0653L98.7281 102.048C98.8263 102.276 99.0155 102.434 99.2332 102.502V102.544H99.4832C99.5973 102.544 99.709 102.522 99.8191 102.472C100.242 102.285 100.423 101.8 100.242 101.384L100.242 101.384L100.242 101.383L97.5969 95.3988C97.5969 95.3988 97.5969 95.3988 97.5968 95.3987C97.4109 94.9778 96.9255 94.7884 96.5061 94.976L96.6081 95.2042ZM96.6081 95.2042C96.8999 95.0737 97.2377 95.2042 97.3682 95.4998L100.013 101.484L99.4832 102.29C99.2606 102.29 99.0495 102.163 98.9573 101.949L96.3126 95.9643C96.1859 95.6725 96.3126 95.3348 96.6081 95.2042Z" fill="white" stroke="white" stroke-width="0.5"/><path d="M103.628 70.8186H103.525C103.218 70.8186 102.925 70.6483 102.782 70.3563C102.733 70.2569 102.273 69.2868 101.995 67.9547C101.717 66.6178 101.615 64.884 102.334 63.2989L102.334 63.2987C103.029 61.767 104.34 60.6808 106.204 60.0492C106.29 59.2236 106.615 57.75 107.824 56.7671L107.824 56.7669C108.873 55.9154 110.29 55.6569 112.009 55.9432C112.253 55.216 112.767 54.1617 113.789 53.6089L113.79 53.6087C114.706 53.1151 115.775 53.14 116.947 53.6273C117.295 53.5681 117.926 53.491 118.651 53.54C119.428 53.5926 120.332 53.792 121.107 54.334C121.736 54.7732 122.195 55.3715 122.475 56.1096C123.54 55.5567 125.334 54.8779 127.1 55.3809M103.628 70.8186L127.032 55.6214M103.628 70.8186L103.64 70.8071M103.628 70.8186L103.64 70.8071M127.1 55.3809L127.032 55.6214M127.1 55.3809C127.1 55.3809 127.1 55.3809 127.1 55.3809L127.032 55.6214M127.1 55.3809C128.519 55.7839 129.599 56.8462 130.33 58.4825M127.032 55.6214C128.383 56.0052 129.427 57.0301 130.137 58.6653M130.33 58.4825C130.301 58.4677 130.274 58.454 130.249 58.4415L130.137 58.6653M130.33 58.4825C130.342 58.5101 130.355 58.5378 130.367 58.5657L130.137 58.6653M130.33 58.4825L130.137 58.6653M103.64 70.8071C103.724 70.7953 103.807 70.7704 103.886 70.7329L103.888 70.732C104.296 70.5332 104.466 70.0423 104.268 69.6313C104.231 69.5502 103.867 68.762 103.633 67.693C103.388 66.5688 103.296 65.174 103.841 63.9739C104.381 62.787 105.496 61.9337 107.222 61.4592C107.591 61.3597 107.845 61.0176 107.828 60.6315L107.827 60.6113C107.827 60.5998 107.827 60.5824 107.827 60.5598C107.828 60.5118 107.83 60.4411 107.836 60.3531C107.848 60.1766 107.877 59.9326 107.94 59.6609C108.069 59.1129 108.334 58.4801 108.868 58.0455L108.869 58.0454C109.603 57.4477 110.771 57.2992 112.412 57.7102L112.413 57.7106C112.635 57.7648 112.878 57.728 113.074 57.5933C113.263 57.4637 113.397 57.2613 113.43 57.0271L113.431 57.0192L113.432 57.0132C113.434 57.0029 113.437 56.987 113.441 56.9659C113.449 56.9239 113.463 56.8626 113.482 56.7872C113.52 56.6361 113.581 56.4307 113.671 56.2105C113.856 55.7608 114.146 55.2934 114.575 55.0623L114.576 55.062C115.028 54.8173 115.657 54.8416 116.501 55.2339L116.501 55.2339L116.504 55.235C116.669 55.3096 116.855 55.3332 117.04 55.2891C117.105 55.275 117.572 55.1783 118.173 55.1761C118.822 55.1738 119.587 55.2828 120.168 55.6881C120.694 56.0557 121.013 56.6313 121.118 57.4898C121.152 57.777 121.338 58.0291 121.607 58.1454C121.877 58.268 122.19 58.2259 122.422 58.0582L122.422 58.0581C122.427 58.055 122.432 58.0515 122.438 58.0475C122.582 57.9505 123.104 57.5996 123.834 57.296C124.667 56.95 125.707 56.6969 126.652 56.9672L126.652 56.9672C127.6 57.238 128.372 58.0251 128.927 59.3963L128.928 59.3987C129.01 59.5952 129.163 59.7542 129.36 59.8419L129.36 59.8418L103.64 70.8071ZM135.211 63.7217C135.211 63.7216 135.211 63.7216 135.211 63.7215L134.974 63.8013L135.211 63.7217ZM134.29 70.3947C134.29 70.3946 134.29 70.3945 134.29 70.3944L134.072 70.273L134.29 70.3947ZM133.651 64.2529L133.887 64.1737L133.65 64.2528C133.65 64.2529 133.651 64.2529 133.651 64.2529ZM122.334 56.4697C122.404 56.4303 122.479 56.3896 122.558 56.3483L122.334 56.4697Z" fill="white" stroke="white" stroke-width="0.5"/><path d="M124.122 64.45L124.122 64.45L124.122 64.45ZM123.875 64.4891L123.876 64.49C123.927 64.8091 124.154 65.0534 124.44 65.1447V65.1875H124.69C124.737 65.1875 124.781 65.1819 124.809 65.1784L124.814 65.1779L124.814 65.178L124.823 65.1765C126.755 64.8626 128.151 63.4326 129.06 62.1002C129.974 60.7615 130.43 59.4741 130.469 59.3624L130.469 59.3625L130.47 59.3603C130.618 58.9269 130.388 58.4596 129.959 58.3105C129.527 58.1563 129.055 58.389 128.907 58.8177L128.907 58.8177L128.906 58.8204C128.906 58.8204 128.906 58.8205 128.906 58.8209C128.903 58.8272 128.88 58.8945 128.833 59.0104C128.785 59.1315 128.713 59.3036 128.618 59.5107C128.428 59.9255 128.145 60.4782 127.773 61.0429C127.021 62.1851 125.94 63.3185 124.559 63.5429C124.105 63.6151 123.804 64.0405 123.875 64.4891Z" fill="white" stroke="white" stroke-width="0.5"/><path d="M112.914 65.1913H113.017L113.022 65.1866C113.103 65.1852 113.183 65.1826 113.262 65.1801L113.275 65.1797L113.276 65.1796C113.728 65.1631 114.086 64.7831 114.07 64.3258L114.07 64.3257C114.053 63.885 113.687 63.5014 113.212 63.5324C108.997 63.674 107.818 60.5001 107.78 60.3904L107.78 60.3904L107.779 60.3888C107.626 59.9616 107.159 59.735 106.729 59.8839C106.299 60.0325 106.068 60.5046 106.217 60.9351L106.217 60.9351L106.219 60.9387C106.218 60.9384 106.219 60.9399 106.219 60.9405L106.221 60.9445L106.225 60.957C106.229 60.9672 106.235 60.9812 106.242 60.9986C106.255 61.0334 106.276 61.0821 106.302 61.1426C106.356 61.2637 106.437 61.4322 106.55 61.6323C106.775 62.0323 107.126 62.5605 107.639 63.0875C108.669 64.1456 110.342 65.1913 112.914 65.1913Z" fill="white" stroke="white" stroke-width="0.5"/><path d="M121.362 82.514L121.114 82.4848C121.013 83.3459 120.694 83.918 120.164 84.2898C119.583 84.6951 118.818 84.8041 118.169 84.8018C117.568 84.7996 117.101 84.7029 117.036 84.6888C116.851 84.6447 116.665 84.6683 116.5 84.7429L116.5 84.7428L116.497 84.7442C115.658 85.1361 115.028 85.1609 114.575 84.9194C114.142 84.6862 113.851 84.2177 113.666 83.7679C113.576 83.5476 113.515 83.3422 113.477 83.1911C113.458 83.1157 113.445 83.0545 113.437 83.0125C113.433 82.9914 113.43 82.9755 113.428 82.9652L113.428 82.9599L113.426 82.9508C113.393 82.7166 113.26 82.5142 113.071 82.3846C112.874 82.2499 112.632 82.2131 112.409 82.2673L112.408 82.2677C110.771 82.6789 109.606 82.5339 108.872 81.9397L108.872 81.9397C108.34 81.5092 108.074 80.8749 107.943 80.3232C107.823 79.8164 107.824 79.406 107.824 79.3439C107.84 78.9632 107.587 78.6178 107.217 78.5185L107.152 78.7599L107.218 78.5188C105.497 78.0483 104.381 77.1914 103.841 76.0078C103.298 74.8115 103.39 73.4159 103.635 72.2895C103.868 71.2189 104.231 70.4279 104.268 70.3466C104.466 69.9384 104.295 69.4438 103.883 69.2456C103.478 69.0489 102.982 69.2116 102.782 69.6256C102.732 69.7256 102.273 70.6955 101.995 72.0271C101.717 73.3639 101.615 75.0977 102.334 76.6829L102.334 76.683C103.029 78.2147 104.34 79.3009 106.204 79.9325C106.29 80.7581 106.615 82.2315 107.823 83.2145C108.873 84.0702 110.294 84.325 112.008 84.0387C112.253 84.7686 112.767 85.82 113.789 86.3729L113.79 86.3731C114.234 86.6119 114.716 86.7331 115.236 86.7331H115.839L115.791 86.6848C116.162 86.6272 116.545 86.5144 116.94 86.3503C117.287 86.4076 117.917 86.484 118.642 86.435C119.419 86.3824 120.322 86.1841 121.098 85.6444C121.732 85.2048 122.188 84.6061 122.467 83.8684C123.532 84.4213 125.327 85.0999 127.093 84.597C128.511 84.1941 129.591 83.1318 130.322 81.4954C131.263 81.0154 134.172 79.3268 135.203 76.2562C135.906 74.1668 135.583 71.917 134.283 69.5835C134.062 69.1857 133.556 69.0435 133.16 69.2637C132.762 69.4847 132.62 69.9904 132.84 70.3867L132.84 70.3871C133.925 72.3324 134.179 74.1241 133.643 75.7249C133.16 77.1658 132.105 78.2638 131.148 79.0095C130.671 79.3808 130.224 79.6609 129.894 79.8488C129.73 79.9426 129.595 80.0133 129.501 80.0607C129.453 80.0843 129.417 80.1022 129.391 80.1142C129.366 80.1263 129.352 80.1323 129.353 80.1322C129.155 80.2199 129.002 80.3789 128.92 80.5754L128.919 80.5775C128.364 81.9454 127.592 82.7362 126.645 83.0068L126.645 83.0068C125.699 83.2772 124.66 83.0241 123.827 82.6781C123.054 82.3566 122.498 81.9714 122.42 81.917C122.182 81.7408 121.873 81.709 121.606 81.8236L121.606 81.8236L121.602 81.8254C121.337 81.9444 121.147 82.191 121.114 82.4859L121.362 82.514ZM121.362 82.514C121.386 82.3106 121.516 82.1379 121.704 82.0534L116.979 84.9323C116.979 84.9324 116.98 84.9326 116.981 84.9328C117.063 84.9505 119.042 85.3785 120.307 84.4947C120.91 84.0725 121.255 83.4276 121.362 82.514Z" fill="white" stroke="white" stroke-width="0.5"/><path d="M128.906 81.1614L128.906 81.1614L128.907 81.1659C129.028 81.5053 129.346 81.72 129.688 81.72C129.768 81.72 129.865 81.7103 129.962 81.6742C130.392 81.5206 130.618 81.0544 130.469 80.6244L130.469 80.6232C130.43 80.5114 129.973 79.224 129.059 77.8854C128.149 76.5532 126.754 75.1235 124.823 74.8092C124.37 74.7324 123.947 75.0425 123.875 75.4927C123.804 75.9415 124.106 76.3671 124.559 76.439L124.598 76.192L124.558 76.4388C125.939 76.6631 127.021 77.7966 127.773 78.9388C128.145 79.5036 128.428 80.0563 128.618 80.4711C128.713 80.6782 128.785 80.8503 128.833 80.9714C128.882 81.094 128.906 81.1622 128.906 81.1614Z" fill="white" stroke="white" stroke-width="0.5"/><path d="M106.729 80.1019L106.729 80.1018C106.3 79.9532 106.069 79.4854 106.217 79.0515L106.219 79.0469L106.219 79.0469L106.219 79.0468L106.219 79.0464L106.219 79.0451L106.221 79.041L106.226 79.0281C106.23 79.0175 106.235 79.003 106.242 78.9849C106.257 78.9486 106.278 78.8979 106.306 78.8349C106.362 78.709 106.447 78.5336 106.565 78.326C106.801 77.911 107.17 77.3647 107.71 76.8259C108.795 75.7436 110.56 74.7014 113.276 74.8022C113.734 74.8188 114.086 75.2047 114.07 75.656L106.729 80.1019ZM106.729 80.1019L106.736 80.1041M106.729 80.1019L106.736 80.1041M106.736 80.1041C106.817 80.1294 106.908 80.1462 106.999 80.1462C107.338 80.1462 107.664 79.9335 107.78 79.5887L107.781 79.5876M106.736 80.1041L107.781 79.5876M107.781 79.5876C107.781 79.5878 107.781 79.5875 107.781 79.5868C107.792 79.5574 108.092 78.7503 108.9 77.9627C109.72 77.1641 111.072 76.376 113.213 76.4495M107.781 79.5876L113.213 76.4495M113.213 76.4495C113.687 76.4755 114.053 76.1043 114.07 75.6561L113.213 76.4495Z" fill="white" stroke="white" stroke-width="0.5"/></svg>