<svg width="241" height="168" fill="none" xmlns="http://www.w3.org/2000/svg"><mask id="path-1-inside-1_2351_414" fill="white"><path d="M0.244629 0H240.245V168H0.244629V0Z"/></mask><path d="M0.244629 0H240.245V168H0.244629V0Z" fill="#A0C665"/><path d="M0.244629 2.96954H240.245V-2.96954H0.244629V2.96954Z" fill="#858585" fill-opacity="0.2" mask="url(#path-1-inside-1_2351_414)"/><path d="M130.781 88.5892L130.781 88.5885C130.959 88.3084 130.979 87.9761 130.835 87.6699C130.835 87.6696 130.835 87.6694 130.835 87.6691L128.806 83.427L130.781 88.5892ZM130.781 88.5892C130.606 88.8663 130.317 89.0251 129.989 89.0251H128.143C125.984 89.0251 124.229 90.7899 124.229 92.9391C124.229 95.0899 125.985 96.8347 128.143 96.8347H136.522L136.527 96.8439H136.681C139.471 96.8439 141.741 94.5731 141.741 91.7837V91.1347C141.741 90.0945 141.418 89.0636 140.831 88.2291L134.345 78.9728L134.345 78.9727C132.342 76.1169 129.076 74.4152 125.611 74.4152C125.091 74.4152 124.671 74.8355 124.671 75.3556C124.671 75.8757 125.091 76.2961 125.611 76.2961C128.461 76.2961 131.151 77.701 132.803 80.0515L132.803 80.0514L133.008 79.908L132.804 80.0517L139.289 89.3081L139.289 89.3087C139.654 89.8265 139.856 90.4754 139.856 91.1301V91.7791C139.856 93.5329 138.43 94.9584 136.677 94.9584H128.143C127.022 94.9584 126.11 94.0596 126.11 92.9437C126.11 91.8248 127.02 90.9106 128.143 90.9106H129.989C130.962 90.9106 131.852 90.4204 132.372 89.6027M130.781 88.5892L130.504 82.6168M130.504 82.6168L130.504 82.617L132.539 86.8656L132.539 86.867C132.957 87.7536 132.898 88.779 132.372 89.6027M130.504 82.6168C130.279 82.1491 129.721 81.9465 129.25 82.1728C128.782 82.3973 128.579 82.9551 128.806 83.4267L130.504 82.6168ZM132.372 89.6027C132.372 89.6028 132.372 89.6028 132.372 89.6029L132.161 89.4685L132.372 89.6026C132.372 89.6026 132.372 89.6027 132.372 89.6027Z" fill="white" stroke="white" stroke-width="0.5"/><path d="M113.873 96.8347H102.09C99.6972 96.8347 97.7476 94.8965 97.7476 92.5111C97.7476 91.584 98.0357 90.7084 98.5781 89.9747L106.591 78.8414L106.591 78.8411C108.599 76.0604 111.832 74.406 115.245 74.406C115.765 74.406 116.185 74.8263 116.185 75.3465C116.185 75.8666 115.765 76.2869 115.245 76.2869C112.44 76.2869 109.772 77.6519 108.12 79.9436C108.12 79.9437 108.12 79.9437 108.12 79.9437L100.101 91.0829L100.1 91.0856L100.1 91.0855C99.7913 91.5021 99.6331 91.9883 99.6331 92.5111C99.6331 93.8538 100.735 94.9538 102.094 94.9538H113.883C115.044 94.9538 115.989 94.0144 115.989 92.8655C115.989 91.7166 115.044 90.7772 113.883 90.7772H111.701C110.647 90.7772 109.716 90.2204 109.212 89.2984L109.212 89.2979C108.708 88.371 108.748 87.2884 109.318 86.4058L113.873 96.8347ZM113.873 96.8347C113.875 96.8347 113.876 96.8347 113.878 96.8347C116.075 96.8322 117.861 95.0514 117.861 92.8655C117.861 90.6781 116.073 88.8963 113.873 88.8963H111.691C111.34 88.8963 111.031 88.71 110.857 88.3962C110.688 88.0789 110.7 87.7211 110.893 87.4224L110.894 87.4221L112.927 84.2656C112.928 84.2653 112.928 84.2651 112.928 84.2649C113.211 83.8304 113.084 83.2477 112.647 82.9662C112.212 82.6833 111.629 82.8105 111.348 83.2481L109.318 86.4054L113.873 96.8347Z" fill="white" stroke="white" stroke-width="0.5"/><path d="M101.588 112.756H101.838V112.752H140.46C144.276 112.752 147.38 109.648 147.38 105.832C147.38 103.77 146.473 101.83 144.887 100.512C143.302 99.1945 141.234 98.6498 139.204 99.027C139.204 99.027 139.204 99.027 139.204 99.027L105.584 105.227L105.584 105.227C102.844 105.736 100.792 108.1 100.669 110.876H97.7536C95.2816 110.876 93.2671 108.865 93.2671 106.389C93.2671 103.913 95.2816 101.903 97.7536 101.903H102.458C105.767 101.903 108.462 99.2084 108.462 95.8988C108.462 95.3787 108.041 94.9584 107.521 94.9584C107.001 94.9584 106.581 95.3787 106.581 95.8988C106.581 98.1727 104.732 100.022 102.458 100.022H97.7536C94.2415 100.022 91.3862 102.877 91.3862 106.389C91.3862 109.901 94.2415 112.756 97.7536 112.756H101.588ZM140.456 110.876H102.553C102.671 109.009 104.068 107.424 105.919 107.081L139.539 100.881C139.539 100.881 139.539 100.881 139.539 100.881C141.017 100.609 142.525 101.004 143.679 101.964C144.833 102.925 145.495 104.337 145.495 105.837C145.495 108.612 143.236 110.876 140.456 110.876Z" fill="white" stroke="white" stroke-width="0.5"/><path d="M133.2 100.916C133.2 101.436 133.62 101.857 134.14 101.857C134.661 101.857 135.081 101.436 135.081 100.916V95.8988C135.081 95.3787 134.661 94.9584 134.14 94.9584C133.62 94.9584 133.2 95.3787 133.2 95.8988V100.916Z" fill="white" stroke="white" stroke-width="0.5"/><path d="M111.718 63.7791C111.718 68.2071 115.319 71.8082 119.747 71.8082C124.175 71.8082 127.776 68.2071 127.776 63.7791C127.776 59.351 124.175 55.75 119.747 55.75C115.319 55.75 111.718 59.351 111.718 63.7791ZM113.599 63.7791C113.599 60.3911 116.355 57.6309 119.747 57.6309C123.135 57.6309 125.895 60.3912 125.895 63.7791C125.895 67.1669 123.135 69.9273 119.747 69.9273C116.359 69.9273 113.599 67.1669 113.599 63.7791Z" fill="white" stroke="white" stroke-width="0.5"/><path d="M124.862 74.7781L124.861 74.7786L120.608 80.2257L115.965 74.7485C115.965 74.7483 115.965 74.7482 115.965 74.7481C115.632 74.3524 115.036 74.3025 114.641 74.6406C114.246 74.9739 114.196 75.5692 114.534 75.9645C114.534 75.9647 114.534 75.9649 114.535 75.9651L119.923 82.3241C120.077 82.5107 120.296 82.6241 120.529 82.6513L120.54 82.6623H120.644H120.644H120.644H120.644H120.644H120.644H120.644H120.644H120.644H120.644H120.644H120.644H120.644H120.644H120.644H120.644H120.644H120.644H120.644H120.644H120.644H120.644H120.645H120.645H120.645H120.645H120.645H120.645H120.645H120.645H120.645H120.645H120.645H120.645H120.645H120.645H120.645H120.645H120.645H120.645H120.645H120.645H120.645H120.645H120.645H120.645H120.645H120.645H120.645H120.645H120.645H120.645H120.645H120.645H120.645H120.645H120.645H120.645H120.645H120.646H120.646H120.646H120.646H120.646H120.646H120.646H120.646H120.646H120.646H120.646H120.646H120.646H120.646H120.646H120.646H120.646H120.646H120.646H120.646H120.646H120.646H120.646H120.646H120.646H120.646H120.646H120.646H120.646H120.646H120.646H120.646H120.646H120.646H120.646H120.646H120.646H120.647H120.647H120.647H120.647H120.647H120.647H120.647H120.647H120.647H120.647H120.647H120.647H120.647H120.647H120.647H120.647H120.647H120.647H120.647H120.647H120.647H120.647H120.647H120.647H120.647H120.647H120.647H120.647H120.647H120.647H120.647H120.647H120.647H120.647H120.647H120.647H120.647H120.648H120.648H120.648H120.648H120.648H120.648H120.648H120.648H120.648H120.648H120.648H120.648H120.648H120.648H120.648H120.648H120.648H120.648H120.648H120.648H120.648H120.648H120.648H120.648H120.648H120.648H120.648H120.648H120.648H120.648H120.648H120.648H120.648H120.648H120.648H120.648H120.648H120.649H120.649H120.649H120.649H120.649H120.649H120.649H120.649H120.649H120.649H120.649H120.649H120.649H120.649H120.649H120.649H120.649H120.649H120.649H120.649H120.649H120.649H120.649H120.649H120.649H120.649H120.649H120.649H120.649H120.649H120.649H120.649H120.649H120.649H120.649H120.649H120.649H120.65H120.65H120.65H120.65H120.65H120.65H120.65H120.65H120.65H120.65H120.65H120.65H120.65H120.65H120.65H120.65H120.65H120.65H120.65H120.65H120.65H120.65H120.65H120.65H120.65H120.65H120.65H120.65H120.65H120.65H120.65H120.65H120.65H120.65H120.65H120.65H120.65H120.651H120.651H120.651H120.651H120.651H120.651H120.651H120.651H120.651H120.651H120.651H120.651H120.651H120.651H120.651H120.651H120.651H120.651H120.651H120.651H120.651H120.651H120.651H120.651H120.651H120.651H120.651H120.651H120.651H120.651H120.651H120.651H120.651H120.651H120.651H120.651H120.651H120.651H120.652H120.652H120.652H120.652H120.652H120.652H120.652H120.652H120.652H120.652H120.652H120.652H120.652H120.652H120.652H120.652H120.652H120.652H120.652H120.652H120.652H120.652H120.652H120.652H120.652H120.652H120.652H120.652H120.652H120.652H120.652H120.652H120.652H120.652H120.652H120.652H120.652H120.653H120.653H120.653H120.653H120.653H120.653H120.653H120.653H120.653H120.653H120.653H120.653H120.653H120.653H120.653H120.653H120.653H120.653H120.653H120.653H120.653H120.653H120.653H120.653H120.653H120.653H120.653H120.653H120.653H120.653H120.653H120.653H120.653H120.653H120.653H120.653H120.653H120.654H120.654H120.654H120.654H120.654H120.654H120.654H120.654H120.654H120.654H120.654H120.654H120.654H120.654H120.654H120.654H120.654H120.654H120.654H120.654H120.654H120.654H120.654H120.654H120.654H120.654H120.654H120.654H120.654H120.654H120.654H120.654H120.654H120.654H120.654H120.654H120.654H120.655H120.655H120.655H120.655H120.655H120.655H120.655H120.655H120.655H120.655H120.655H120.655H120.655H120.655H120.655H120.655H120.655H120.655H120.655H120.655H120.655H120.655H120.655H120.655H120.655H120.655H120.655H120.655H120.655H120.655H120.655H120.655H120.655H120.655H120.655H120.655H120.655H120.656H120.656H120.656H120.656H120.656H120.656H120.656H120.656H120.656H120.656H120.656H120.656H120.656H120.656H120.656H120.656H120.656H120.656H120.656H120.656H120.656H120.656H120.656H120.656H120.656H120.656H120.656H120.656H120.656H120.656H120.656H120.656H120.656H120.656H120.656H120.656H120.656H120.657H120.657H120.657H120.657H120.657H120.657H120.657H120.657H120.657H120.657H120.657H120.657H120.657H120.657H120.657H120.657H120.657H120.657H120.657H120.657H120.657H120.657H120.657H120.657H120.657H120.657H120.657H120.657H120.657H120.657H120.657H120.657H120.657H120.657H120.657H120.657H120.657H120.658H120.658H120.658H120.658H120.658H120.658H120.658H120.658H120.658V82.6624L120.663 82.6622C120.946 82.656 121.209 82.5238 121.384 82.2989C121.384 82.2989 121.384 82.2988 121.384 82.2988L126.346 75.9377L126.347 75.9368C126.666 75.5243 126.591 74.9355 126.184 74.616L126.184 74.616L126.182 74.6149C125.77 74.2961 125.181 74.3709 124.862 74.7781Z" fill="white" stroke="white" stroke-width="0.5"/><path d="M89.8547 95.3293C89.9421 95.3293 90.0375 95.317 90.1343 95.2849C90.6277 95.1278 90.9021 94.6029 90.7521 94.1091L90.7517 94.1079C88.3256 86.2651 89.6909 81.4526 91.6702 78.5885C93.6583 75.7117 96.2985 74.7527 96.4952 74.6851L96.4957 74.6849C96.9828 74.5163 97.2477 73.985 97.0789 73.4941C96.9145 72.9982 96.3751 72.7358 95.8857 72.9052C95.8025 72.934 92.7307 74.0371 90.3481 77.3114C87.9551 80.5999 86.2888 86.0351 88.9575 94.6604C89.0561 94.9807 89.3067 95.2084 89.6047 95.2908V95.3293H89.8547Z" fill="white" stroke="white" stroke-width="0.5"/><path d="M85.9055 73.6664L85.9055 73.6664C82.7938 77.9433 79.9652 85.7504 83.9678 98.6838C84.0816 99.0529 84.3974 99.2991 84.7548 99.3413L84.7659 99.3524H84.8695C84.9569 99.3524 85.0524 99.34 85.1493 99.3079C85.6426 99.1507 85.9169 98.6259 85.7669 98.1321L85.7665 98.1309C82.7729 88.4532 83.3595 80.4162 87.3785 74.8341C90.3782 70.676 94.2984 69.2525 94.4238 69.2075C94.9182 69.0429 95.18 68.5051 95.012 68.0166C94.8479 67.5211 94.3092 67.2587 93.8202 67.4272C93.5988 67.5013 89.2877 69.0188 85.9055 73.6664Z" fill="white" stroke="white" stroke-width="0.5"/><path d="M143.521 73.1416C143.162 73.0219 142.771 73.2153 142.646 73.5743C142.527 73.9333 142.72 74.3246 143.079 74.4489M143.521 73.1416L149.431 95.0427C149.067 94.9276 148.865 94.5456 148.975 94.1774C153.882 78.32 143.185 74.4857 143.079 74.4489M143.521 73.1416C143.641 73.1831 155.59 77.4638 150.292 94.587L143.521 73.1416ZM143.079 74.4489L142.997 74.685C142.997 74.685 142.997 74.685 142.997 74.6852C142.998 74.6854 142.998 74.6855 142.999 74.6858L143.006 74.6882L143.03 74.6974C143.052 74.7055 143.082 74.7175 143.122 74.7336C143.201 74.766 143.314 74.815 143.457 74.8825C143.741 75.0177 144.138 75.2272 144.599 75.5266C145.519 76.1256 146.687 77.083 147.703 78.5244C149.725 81.3959 151.171 86.2356 148.737 94.1035L148.736 94.1055C148.587 94.6028 148.86 95.1217 149.351 95.2797C149.447 95.3133 149.544 95.3249 149.634 95.3249C150.037 95.3249 150.406 95.0612 150.53 94.6616L150.531 94.6609C153.199 86.0354 151.533 80.6002 149.14 77.3116C146.758 74.0373 143.686 72.9342 143.603 72.9054L143.603 72.9054L143.6 72.9045C143.11 72.7413 142.579 73.0047 142.41 73.4925L142.41 73.4925L142.409 73.4953C142.246 73.9848 142.509 74.5163 142.997 74.6851L143.079 74.4489Z" fill="white" stroke="white" stroke-width="0.5"/><path d="M154.623 99.348H154.873V99.309C155.172 99.2253 155.421 98.9948 155.52 98.68L155.52 98.6794C159.523 85.746 156.699 77.9435 153.582 73.6619C150.193 69.0045 145.871 67.4904 145.666 67.4223C145.177 67.2591 144.645 67.5225 144.477 68.0104C144.306 68.5017 144.571 69.0342 145.059 69.2029L145.059 69.203L145.062 69.2039L145.062 69.2039C145.065 69.205 145.316 69.2932 145.738 69.4909C146.163 69.6895 146.759 69.9976 147.449 70.4376C148.83 71.3177 150.585 72.723 152.105 74.8299L152.105 74.8299C156.133 80.4119 156.72 88.4487 153.726 98.1265L153.726 98.1277C153.576 98.6207 153.849 99.1446 154.341 99.3028C154.437 99.3364 154.534 99.348 154.623 99.348Z" fill="white" stroke="white" stroke-width="0.5"/></svg>