<svg width="240" height="169" fill="none" xmlns="http://www.w3.org/2000/svg"><mask id="path-1-inside-1_2351_471" fill="white"><path d="M0 0.5H240V168.5H0V0.5Z"/></mask><path d="M0 0.5H240V168.5H0V0.5Z" fill="#A0C665"/><path d="M0 3.46954H240V-2.46954H0V3.46954Z" fill="#858585" fill-opacity="0.2" mask="url(#path-1-inside-1_2351_471)"/><path d="M138.006 106.049H138.61L138.467 105.906C138.697 105.754 138.847 105.493 138.847 105.197V104.028C138.847 102.061 139.848 100.424 142.205 98.7073C142.507 98.4889 142.837 98.2544 143.187 98.0076L143.187 98.0075L143.221 97.9836C146.771 95.4785 152.25 91.6109 152.25 84.6788V67.5783C152.25 66.4553 151.813 65.3989 151.021 64.6025C150.228 63.8053 149.171 63.3683 148.048 63.3683H148.036C146.917 63.3683 145.86 63.8054 145.068 64.598C144.271 65.3953 143.838 66.4561 143.838 67.5783V80.2641C143.838 80.7332 144.217 81.1123 144.686 81.1123C145.155 81.1123 145.534 80.7332 145.534 80.2641V67.5783C145.534 66.9069 145.795 66.2765 146.271 65.801L146.271 65.8003C146.743 65.3255 147.368 65.0648 148.039 65.0647C148.732 65.0685 149.35 65.3261 149.825 65.8007C150.297 66.2764 150.558 66.9069 150.558 67.5783V84.6788C150.558 90.7155 145.6 94.2304 142.214 96.6174C141.854 96.8694 141.518 97.1096 141.209 97.3338L141.209 97.334C139.359 98.6826 137.158 100.694 137.158 104.028V105.201C137.158 105.67 137.537 106.049 138.006 106.049Z" fill="white" stroke="white" stroke-width="0.5"/><path d="M123.476 105.245L123.476 105.245C123.432 104.355 123.372 103.484 123.312 102.634L123.312 102.634L123.31 102.594C122.945 97.3462 122.621 92.6739 126.41 88.7952L126.41 88.7951C128.363 86.7971 130.059 86.3218 131.522 85.912L131.53 85.9096L131.531 85.9094C132.614 85.6098 133.486 85.3597 134.312 84.5377C134.312 84.5377 134.312 84.5376 134.312 84.5375L139.747 79.1029C139.747 79.1028 139.747 79.1027 139.747 79.1026C140.424 78.4214 141.33 78.0441 142.297 78.0441C143.265 78.0441 144.171 78.4216 144.851 79.1069L144.853 79.108C145.078 79.3378 145.266 79.5856 145.416 79.843L123.476 105.245ZM123.476 105.245C123.494 105.612 123.744 105.91 124.073 106.011V106.053H124.323H124.324H124.324H124.324H124.324H124.324H124.324H124.324H124.324H124.324H124.324H124.324H124.324H124.324H124.324H124.325H124.325H124.325H124.325H124.325H124.325H124.325H124.325H124.325H124.325H124.325H124.325H124.325H124.325H124.325H124.326H124.326H124.326H124.326H124.326H124.326H124.326H124.326H124.326H124.326H124.326H124.326H124.326H124.326H124.326H124.327H124.327H124.327H124.327H124.327H124.327H124.327H124.327H124.327H124.327H124.327H124.327H124.327H124.327H124.327H124.328H124.328H124.328H124.328H124.328H124.328H124.328H124.328H124.328H124.328H124.328H124.328H124.328H124.328H124.328H124.329H124.329H124.329H124.329H124.329H124.329H124.329H124.329H124.329H124.329H124.329H124.329H124.329H124.329H124.329H124.329H124.33H124.33H124.33H124.33H124.33H124.33H124.33H124.33H124.33H124.33H124.33H124.33H124.33H124.33H124.33H124.33H124.331H124.331H124.331H124.331H124.331H124.331H124.331H124.331H124.331H124.331H124.331H124.331H124.331H124.331H124.331H124.331H124.332H124.332H124.332H124.332H124.332H124.332H124.332H124.332H124.332H124.332H124.332H124.332H124.332H124.332H124.332H124.332H124.333H124.333H124.333H124.333H124.333H124.333H124.333H124.333H124.333H124.333H124.333H124.333H124.333H124.333H124.333H124.333H124.333H124.334H124.334H124.334H124.334H124.334H124.334H124.334H124.334H124.334H124.334H124.334H124.334H124.334H124.334H124.334H124.334H124.334H124.335H124.335H124.335H124.335H124.335H124.335H124.335H124.335H124.335H124.335H124.335H124.335H124.335H124.335H124.335H124.335H124.336H124.336H124.336H124.336H124.336H124.336H124.336H124.336H124.336H124.336H124.336H124.336H124.336H124.336H124.336H124.336H124.336H124.337H124.337H124.337H124.337H124.337H124.337H124.337H124.337H124.337H124.337H124.337H124.337H124.337H124.337H124.337H124.337H124.337H124.338H124.338H124.338H124.338H124.338H124.338H124.338H124.338H124.338H124.338H124.338H124.338H124.338H124.338H124.338H124.338H124.338H124.339H124.339H124.339H124.339H124.339H124.339H124.339H124.339H124.339H124.339H124.339H124.339H124.339H124.339H124.339H124.339H124.339H124.34H124.34H124.34H124.34H124.34H124.34H124.34H124.34H124.34H124.34H124.34H124.34H124.34H124.34H124.34H124.34H124.34H124.34H124.341H124.341H124.341H124.341H124.341H124.341H124.341H124.341H124.341H124.341H124.341H124.341H124.341H124.341H124.341H124.341H124.341H124.342H124.342H124.342H124.342H124.342H124.342H124.342H124.342H124.342H124.342H124.342H124.342H124.342H124.342H124.342H124.342H124.342H124.343H124.343H124.343H124.343H124.343H124.343H124.343H124.343H124.343H124.343H124.343H124.343H124.343H124.343H124.343H124.343H124.343H124.344H124.344H124.344H124.344H124.344H124.344H124.344H124.344H124.344H124.344H124.344H124.344H124.344H124.344H124.344H124.344H124.345H124.345H124.345H124.345H124.345H124.345H124.345H124.345H124.345H124.345H124.345H124.345H124.345H124.345H124.345H124.345H124.345H124.346H124.346H124.346H124.346H124.346H124.346H124.346H124.346H124.346H124.346H124.346H124.346H124.346H124.346H124.346H124.346H124.346H124.347H124.347H124.347H124.347H124.347H124.347H124.347H124.347H124.347H124.347H124.347H124.347H124.347H124.347H124.347H124.347H124.348H124.348H124.348H124.348H124.348H124.348H124.348H124.348H124.348H124.348H124.348H124.348H124.348H124.348H124.348H124.348H124.349H124.349H124.349H124.349H124.349H124.349H124.349H124.349H124.349H124.349H124.349H124.349H124.349H124.349H124.349H124.349H124.35H124.35H124.35H124.35H124.35H124.35H124.35H124.35H124.35H124.35H124.35H124.35H124.35H124.35H124.35H124.35H124.351H124.351H124.351H124.351H124.351H124.351H124.351H124.351H124.351H124.351H124.351H124.351H124.351H124.351H124.351H124.352H124.352H124.352H124.352H124.352H124.352H124.352H124.352H124.352H124.352H124.352H124.352H124.352H124.352H124.352H124.353H124.353H124.353H124.353H124.353H124.353H124.353H124.353H124.353H124.353H124.353H124.353H124.353H124.353H124.353H124.354H124.354H124.354H124.354H124.354H124.354H124.354H124.354H124.354H124.354H124.354H124.354H124.354H124.354H124.354H124.355H124.355H124.355H124.355H124.355H124.355H124.355H124.355H124.355H124.355H124.355H124.355H124.355V106.053L124.368 106.053C124.832 106.03 125.194 105.634 125.171 105.165L125.171 105.164C125.123 104.26 125.063 103.377 125.004 102.52C124.643 97.2926 124.381 93.3069 127.625 89.9819C129.259 88.3092 130.625 87.9279 131.983 87.5491L131.988 87.5477L131.988 87.5476L132.019 87.5388C133.146 87.2226 134.374 86.878 135.511 85.7409L140.951 80.3013L140.952 80.3005M123.476 105.245L140.952 80.3005M140.952 80.3005C141.311 79.9377 141.789 79.7405 142.301 79.7405C142.813 79.7405 143.291 79.9411 143.642 80.2957C143.768 80.4254 143.871 80.5609 143.952 80.6981C144.389 81.445 144.265 82.3969 143.652 83.0105C143.652 83.0105 143.652 83.0105 143.652 83.0105L136.583 90.0757C136.582 90.076 136.582 90.0762 136.582 90.0765C136.247 90.4064 136.249 90.9435 136.58 91.2754L140.952 80.3005Z" fill="white" stroke="white" stroke-width="0.5"/><path d="M123.235 112.561H138.963C139.812 112.561 140.498 111.871 140.498 111.027V105.879C140.498 105.03 139.807 104.345 138.963 104.345H123.235C122.386 104.345 121.701 105.035 121.701 105.879V111.027C121.701 111.876 122.391 112.561 123.235 112.561ZM123.393 106.045H138.797V110.869H123.393V106.045Z" fill="white" stroke="white" stroke-width="0.5"/><path d="M101.248 106.049H100.998C100.528 106.049 100.15 105.665 100.15 105.201V104.028C100.15 102.061 99.1521 100.424 96.7948 98.7072L96.7937 98.7064C96.5358 98.5163 96.2575 98.3205 95.961 98.1118C95.9122 98.0774 95.8628 98.0427 95.813 98.0076L95.8128 98.0075L95.7789 97.9835C92.2297 95.4785 86.75 91.6109 86.75 84.6828V67.5783C86.75 66.4558 87.1867 65.3952 87.9795 64.6022C88.7726 63.8051 89.8334 63.3683 90.9561 63.3683H90.968C92.0875 63.3683 93.1398 63.8056 93.9359 64.5976L93.9364 64.598C94.733 65.3947 95.1702 66.4554 95.1661 67.5788M101.248 106.049L94.9161 67.5783M101.248 106.049V106.008M101.248 106.049V106.008M95.1661 67.5788C95.1661 67.5789 95.1661 67.5791 95.1661 67.5793L94.9161 67.5783M95.1661 67.5788V67.5783H94.9161M95.1661 67.5788V80.2601C95.1661 80.7292 94.787 81.1083 94.3179 81.1083C93.8489 81.1083 93.4697 80.7292 93.4697 80.2601V67.5744C93.4697 66.9017 93.2121 66.2681 92.7341 65.7937L92.7334 65.793C92.2575 65.3171 91.631 65.0567 90.964 65.0567H90.9561C90.2846 65.0567 89.6543 65.3175 89.1787 65.793C88.7032 66.2686 88.4428 66.8985 88.4464 67.569L88.4464 67.5704L88.4464 84.6748C88.4464 90.7119 93.405 94.2268 96.791 96.6138L96.7914 96.6141C96.8772 96.6749 96.9625 96.735 97.0469 96.7945C97.3085 96.9788 97.5616 97.1571 97.7957 97.3304M94.9161 67.5783V80.2601C94.9161 80.5911 94.6489 80.8583 94.3179 80.8583C93.9869 80.8583 93.7197 80.5911 93.7197 80.2601V67.5744C93.7197 66.8366 93.4366 66.1387 92.9102 65.6163C92.3878 65.0938 91.6978 64.8067 90.964 64.8067H90.9561C90.2183 64.8067 89.5244 65.0938 89.002 65.6163C88.4795 66.1387 88.1924 66.8326 88.1964 67.5704V84.6748C88.1964 90.8601 93.2811 94.4453 96.6469 96.8182C96.7339 96.8797 96.8199 96.9403 96.9047 97.0001C97.1661 97.1842 97.4161 97.3604 97.6479 97.532M97.7957 97.3304C97.7955 97.3303 97.7953 97.3301 97.7951 97.33L97.6479 97.532M97.7957 97.3304C97.796 97.3306 97.7963 97.3309 97.7966 97.3311L97.6479 97.532M97.7957 97.3304C99.6458 98.6789 101.85 100.694 101.85 104.024V105.197C101.85 105.581 101.595 105.902 101.248 106.008M97.6479 97.532C99.4863 98.872 101.6 100.822 101.6 104.024V105.197C101.6 105.528 101.329 105.795 100.998 105.795H101.248V105.799V106.008M100.929 105.795C100.865 105.788 100.804 105.77 100.748 105.744V105.795V105.799H100.998C100.974 105.799 100.951 105.798 100.929 105.795Z" fill="white" stroke="white" stroke-width="0.5"/><path d="M114.571 106.043L114.581 106.053H114.684C115.135 106.053 115.51 105.703 115.532 105.249L115.532 105.249C115.576 104.359 115.636 103.488 115.696 102.638L115.696 102.638L115.698 102.597C116.063 97.3496 116.387 92.6818 112.598 88.7995L114.571 106.043ZM114.571 106.043C114.133 105.988 113.811 105.602 113.833 105.161C113.833 105.161 113.833 105.161 113.833 105.161L114.571 106.043ZM107.477 85.9134C106.394 85.6136 105.518 85.3636 104.696 84.5419L99.2608 79.1069C99.2607 79.1068 99.2606 79.1067 99.2605 79.1066C98.5796 78.4215 97.6745 78.0441 96.7067 78.0441C95.739 78.0441 94.8293 78.4215 94.148 79.1114L94.148 79.1114L94.1458 79.1137C93.9264 79.3414 93.7384 79.5844 93.5876 79.8428C92.7603 81.2534 92.9923 83.0488 94.1531 84.2095L94.1531 84.2096L101.222 91.2747C101.223 91.275 101.223 91.2753 101.223 91.2755C101.553 91.6102 102.09 91.608 102.422 91.277C102.757 90.9468 102.755 90.4091 102.423 90.0772L102.423 90.0772L95.3521 83.0105C95.3521 83.0105 95.352 83.0105 95.352 83.0105C94.7384 82.3968 94.6152 81.4448 95.0519 80.6978C95.1329 80.5605 95.236 80.4251 95.3578 80.2996C95.7169 79.9374 96.1947 79.7405 96.7067 79.7405C97.2191 79.7405 97.6972 79.9377 98.0564 80.3005L98.0573 80.3013L103.493 85.7369C104.64 86.8844 105.875 87.2286 107.017 87.5439L107.017 87.5439C108.375 87.919 109.743 88.2992 111.379 89.9778L111.379 89.9781C114.626 93.2991 114.361 97.2882 114 102.516L112.598 88.7993C110.645 86.7933 108.946 86.32 107.477 85.9134ZM107.477 85.9134L107.41 86.1544M107.477 85.9134L107.41 86.1544M107.41 86.1544C106.33 85.8553 105.392 85.5921 104.519 84.7187L99.0835 79.2831M107.41 86.1544L99.0835 79.2831M99.0835 79.2831C98.4494 78.645 97.608 78.2941 96.7067 78.2941C95.8054 78.2941 94.9599 78.645 94.3259 79.2871C94.1185 79.5024 93.943 79.7297 93.8034 79.969C93.0337 81.2811 93.2491 82.952 94.3298 84.0328L99.0835 79.2831Z" fill="white" stroke="white" stroke-width="0.5"/><path d="M100.044 112.561H115.773C116.621 112.561 117.307 111.871 117.307 111.027V105.879C117.307 105.03 116.616 104.345 115.773 104.345H100.044C99.1959 104.345 98.5103 105.035 98.5103 105.879V111.027C98.5103 111.876 99.2009 112.561 100.044 112.561ZM100.203 106.045H115.607V110.869H100.203V106.045Z" fill="white" stroke="white" stroke-width="0.5"/><path d="M132.791 74.5267L132.791 74.527L120.101 87.2127C120.101 87.2127 120.101 87.2127 120.101 87.2127C119.937 87.3768 119.718 87.4614 119.502 87.4614H119.252V87.4153C119.124 87.3756 119.003 87.305 118.902 87.2047L104.709 73.0115C102.856 71.1582 101.833 68.6939 101.833 66.0711C101.833 63.4485 102.856 60.9802 104.709 59.1268C106.559 57.2732 109.027 56.25 111.654 56.25C114.28 56.25 116.749 57.2733 118.598 59.1311L119.502 60.0347L120.406 59.1311C120.406 59.131 120.406 59.1309 120.406 59.1308C122.256 57.273 124.724 56.254 127.35 56.254C129.977 56.254 132.445 57.2772 134.295 59.1347C136.148 60.9882 137.171 63.4565 137.171 66.0791C137.171 68.7018 136.148 71.166 134.295 73.0193C134.295 73.0193 134.295 73.0194 134.295 73.0195M132.791 74.5267L134.118 72.8427L134.295 73.0195M132.791 74.5267L134.295 73.0195M132.791 74.5267L134.295 73.0195M111.654 57.9464H111.904V57.9461C113.984 58.0085 115.925 58.8483 117.399 60.3256L117.399 60.3258L118.902 61.8292C119.061 61.9873 119.275 62.0779 119.502 62.0779C119.729 62.0779 119.943 61.9873 120.101 61.8292L121.605 60.3258C123.137 58.7934 125.175 57.9464 127.35 57.9464C129.525 57.9464 131.563 58.7895 133.095 60.3256L133.096 60.3258C134.632 61.8621 135.475 63.9001 135.475 66.0711C135.475 68.2422 134.632 70.2801 133.096 71.8123L133.096 71.8125L119.502 85.4062L105.908 71.8125L105.908 71.8123C104.372 70.2801 103.529 68.2422 103.529 66.0711C103.529 63.9001 104.372 61.8621 105.908 60.3258C107.441 58.7934 109.479 57.9464 111.654 57.9464Z" fill="white" stroke="white" stroke-width="0.5"/></svg>