<svg width="241" height="169" fill="none" xmlns="http://www.w3.org/2000/svg"><mask id="path-1-inside-1_2351_397" fill="white"><path d="M0.744629 0.425049H240.745V168.425H0.744629V0.425049Z"/></mask><path d="M0.744629 0.425049H240.745V168.425H0.744629V0.425049Z" fill="#A0C665"/><path d="M0.744629 3.39459H240.745V-2.54449H0.744629V3.39459Z" fill="#858585" fill-opacity="0.2" mask="url(#path-1-inside-1_2351_397)"/><path d="M95.4946 89.0796C95.4946 102.921 106.685 114.194 120.495 114.328V114.333H120.745C134.669 114.333 145.995 103.008 145.995 89.0833C145.995 75.1588 134.669 63.8333 120.745 63.8333C106.82 63.8333 95.4946 75.1551 95.4946 89.0796ZM97.0926 89.0796C97.0926 76.0388 107.704 65.4312 120.745 65.4312C133.785 65.4312 144.397 76.0388 144.397 89.0796C144.397 102.12 133.785 112.732 120.745 112.732C107.704 112.732 97.0926 102.12 97.0926 89.0796Z" fill="white" stroke="white" stroke-width="0.5"/><path d="M123.777 64.9359C123.777 65.3777 124.134 65.7349 124.576 65.7349C125.018 65.7349 125.375 65.3777 125.375 64.9359V59.911C125.375 59.4692 125.018 59.1121 124.576 59.1121H116.905C116.464 59.1121 116.106 59.4692 116.106 59.911V64.9359C116.106 65.3777 116.464 65.7349 116.905 65.7349C117.347 65.7349 117.704 65.3777 117.704 64.9359V60.71H123.777V64.9359Z" fill="white" stroke="white" stroke-width="0.5"/><path d="M113.996 60.7027H127.49C127.931 60.7027 128.289 60.3456 128.289 59.9037V54.974C128.289 54.5322 127.931 54.175 127.49 54.175H113.996C113.554 54.175 113.197 54.5322 113.197 54.974V59.9037C113.197 60.3456 113.554 60.7027 113.996 60.7027ZM126.691 55.773V59.1048H114.795V55.773H126.691Z" fill="white" stroke="white" stroke-width="0.5"/><path d="M136.478 70.3772L136.478 70.3772L136.477 70.3779C136.191 70.7174 136.233 71.2181 136.568 71.5048C136.717 71.6328 136.903 71.6968 137.085 71.6968H137.089C137.314 71.6968 137.538 71.6001 137.696 71.4155L137.697 71.4147L140.251 68.408L142.273 70.4298C142.584 70.7451 143.09 70.7429 143.403 70.4312C143.718 70.1201 143.716 69.6135 143.403 69.301L138.335 64.2329C138.024 63.9176 137.518 63.9198 137.206 64.2315C136.89 64.5426 136.893 65.0492 137.205 65.3617L139.117 67.2737L136.478 70.3772Z" fill="white" stroke="white" stroke-width="0.5"/><path d="M104.4 71.6968H104.459L104.472 71.6905C104.633 71.6772 104.793 71.6144 104.924 71.5019C105.26 71.2185 105.302 70.7127 105.015 70.3768C105.015 70.3767 105.015 70.3766 105.015 70.3765L102.376 67.2735L104.284 65.3623C104.599 65.0514 104.597 64.5455 104.285 64.233C103.974 63.9173 103.467 63.9198 103.155 64.2322L98.0867 69.3004C97.7714 69.6112 97.7736 70.1172 98.0852 70.4297C98.3964 70.7454 98.903 70.7429 99.2154 70.4305L101.238 68.408L103.792 71.4136C103.949 71.6023 104.178 71.6968 104.4 71.6968Z" fill="white" stroke="white" stroke-width="0.5"/><path d="M120.745 102.838C120.542 102.838 120.335 102.758 120.18 102.604L108.956 91.3793C107.543 89.9708 106.767 88.0955 106.767 86.1005C106.767 84.1055 107.543 82.2303 108.955 80.8183C110.367 79.4064 112.243 78.6298 114.238 78.6298C116.233 78.6298 118.104 79.4065 119.516 80.8183L120.745 82.0469L121.973 80.8183C123.385 79.4064 125.26 78.6298 127.252 78.6298C129.243 78.6298 131.122 79.4063 132.534 80.8183C133.946 82.2303 134.723 84.1055 134.723 86.1005C134.723 88.0954 133.946 89.9706 132.534 91.379L120.745 102.838ZM120.745 102.838C120.948 102.838 121.155 102.758 121.309 102.604L132.534 91.3793L120.745 102.838ZM110.085 81.9514L110.085 81.9512C111.195 80.8381 112.668 80.2277 114.234 80.2277H114.241C115.807 80.2277 117.28 80.8415 118.39 81.9514L120.184 83.7447C120.332 83.8935 120.535 83.979 120.748 83.979C120.962 83.979 121.164 83.8935 121.313 83.7447L123.106 81.9514L123.107 81.9512C124.216 80.8381 125.69 80.2277 127.255 80.2277C128.821 80.2277 130.295 80.8415 131.405 81.9514C132.514 83.061 133.125 84.5346 133.125 86.1042C133.125 87.6736 132.514 89.1435 131.405 90.2533L120.745 100.913L110.085 90.2533C108.975 89.1435 108.365 87.6736 108.365 86.1042C108.365 84.5346 108.975 83.061 110.085 81.9514Z" fill="white" stroke="white" stroke-width="0.5"/></svg>