<svg width="240" height="169" viewBox="0 0 240 169" fill="none" xmlns="http://www.w3.org/2000/svg">
<mask id="path-1-inside-1_2351_469" fill="white">
<path d="M0 0.5H240V168.5H0V0.5Z"/>
</mask>
<path d="M0 0.5H240V168.5H0V0.5Z" fill="#A0C665"/>
<path d="M0 3.46954H240V-2.46954H0V3.46954Z" fill="#858585" fill-opacity="0.2" mask="url(#path-1-inside-1_2351_469)"/>
<path d="M99.5652 79.6361L99.5657 79.6352C99.9431 78.976 100.106 78.2105 100.034 77.4192C99.9858 76.8706 99.9619 76.2931 99.9619 75.6581C99.9619 63.1597 110.84 52.9603 124.249 52.9603C137.659 52.9603 148.541 63.1598 148.541 75.6581C148.541 81.256 146.348 86.6289 142.357 90.7876C140.766 92.4446 139.891 94.6412 139.891 96.968V116.656C139.891 117.129 140.273 117.511 140.746 117.511C141.219 117.511 141.601 117.129 141.601 116.656V96.968C141.601 95.0785 142.307 93.3053 143.589 91.969C147.885 87.494 150.251 81.7036 150.251 75.6581C150.251 62.1836 138.569 51.25 124.249 51.25C109.929 51.25 98.2516 62.1836 98.2475 75.6581V75.6581C98.2475 76.3471 98.2761 76.9717 98.3292 77.5723L98.3292 77.5727C98.3694 78.018 98.2814 78.434 98.083 78.7814C98.0829 78.7816 98.0828 78.7817 98.0828 78.7818L89.8661 93.0007C89.8659 93.0009 89.8658 93.0012 89.8656 93.0015C89.7113 93.2651 89.7115 93.5955 89.8661 93.8589C90.0187 94.1189 90.2972 94.285 90.6062 94.285H98.2515V102.451C98.2515 105.701 101.154 108.305 104.67 108.305H116.806V116.656C116.806 117.129 117.188 117.511 117.661 117.511C118.134 117.511 118.516 117.129 118.516 116.656V107.449C118.516 106.977 118.134 106.594 117.661 106.594H104.67C102.047 106.594 99.9619 104.71 99.9619 102.451V93.4298C99.9619 92.9569 99.5796 92.5746 99.1067 92.5746H92.0883L99.5652 79.6361Z" fill="white" stroke="white" stroke-width="0.5"/>
<path d="M129.002 89.8417L129.004 89.8426C130.367 90.4298 131.664 90.7304 132.887 90.7304C134.18 90.7304 135.379 90.3909 136.471 89.7212L136.471 89.721C139.237 88.0193 140.771 84.48 141.62 81.373C142.472 78.2545 142.655 75.4957 142.67 75.259C142.687 75.016 142.594 74.7765 142.423 74.6057C142.254 74.4359 142.028 74.3439 141.776 74.3552L141.775 74.3552C135.27 74.663 130.863 76.488 128.808 79.8732C127.497 82.0318 127.417 84.3721 127.67 86.183C127.923 87.9942 128.511 89.3001 128.566 89.4169C128.656 89.6093 128.81 89.7572 129.002 89.8417ZM141.787 74.6048L141.787 74.6049L141.787 74.6048ZM140.9 75.8733C140.892 75.952 140.882 76.0364 140.872 76.1261C140.956 76.1198 141.041 76.1137 141.126 76.108C141.136 76.0181 141.145 75.9339 141.153 75.8556C141.069 75.8612 140.984 75.8671 140.9 75.8733ZM130.003 88.4051C129.97 88.392 129.937 88.3786 129.903 88.365L129.809 88.5963L130.041 88.5047C130.029 88.4746 130.016 88.4414 130.003 88.4051ZM135.707 88.4829L135.576 88.2702C135.576 88.2703 135.576 88.2703 135.576 88.2703L135.707 88.4829Z" fill="white" stroke="white" stroke-width="0.5"/>
<path d="M135.937 82.2836L135.937 82.2836L135.936 82.2809C135.79 81.8355 135.309 81.5809 134.859 81.73C132.756 82.4055 131.198 84.1233 130.165 85.6642C129.153 87.1739 128.621 88.55 128.56 88.7167C128.487 88.8801 127.889 90.244 127.329 91.8731C127.043 92.7042 126.766 93.6083 126.573 94.4596C126.382 95.3061 126.27 96.1205 126.328 96.7642C126.368 97.2073 126.738 97.5445 127.178 97.5445H127.178H127.178H127.179H127.179H127.179H127.179H127.179H127.179H127.179H127.179H127.18H127.18H127.18H127.18H127.18H127.18H127.18H127.18H127.18H127.181H127.181H127.181H127.181H127.181H127.181H127.181H127.181H127.182H127.182H127.182H127.182H127.182H127.182H127.182H127.182H127.182H127.183H127.183H127.183H127.183H127.183H127.183H127.183H127.183H127.183H127.184H127.184H127.184H127.184H127.184H127.184H127.184H127.184H127.184H127.185H127.185H127.185H127.185H127.185H127.185H127.185H127.185H127.186H127.186H127.186H127.186H127.186H127.186H127.186H127.186H127.186H127.187H127.187H127.187H127.187H127.187H127.187H127.187H127.187H127.187H127.188H127.188H127.188H127.188H127.188H127.188H127.188H127.188H127.188H127.189H127.189H127.189H127.189H127.189H127.189H127.189H127.189H127.189H127.19H127.19H127.19H127.19H127.19H127.19H127.19H127.19H127.19H127.191H127.191H127.191H127.191H127.191H127.191H127.191H127.191H127.191H127.192H127.192H127.192H127.192H127.192H127.192H127.192H127.192H127.192H127.193H127.193H127.193H127.193H127.193H127.193H127.193H127.193H127.193H127.193H127.194H127.194H127.194H127.194H127.194H127.194H127.194H127.194H127.194H127.195H127.195H127.195H127.195H127.195H127.195H127.195H127.195H127.195H127.196H127.196H127.196H127.196H127.196H127.196H127.196H127.196H127.196H127.197H127.197H127.197H127.197H127.197H127.197H127.197H127.197H127.197H127.198H127.198H127.198H127.198H127.198H127.198H127.198H127.198H127.198H127.198H127.199H127.199H127.199H127.199H127.199H127.199H127.199H127.199H127.199H127.2H127.2H127.2H127.2H127.2H127.2H127.2H127.2H127.2H127.201H127.201H127.201H127.201H127.201H127.201H127.201H127.201H127.201H127.201H127.202H127.202H127.202H127.202H127.202H127.202H127.202H127.202H127.202H127.203H127.203H127.203H127.203H127.203H127.203H127.203H127.203H127.203H127.203H127.204H127.204H127.204H127.204H127.204H127.204H127.204H127.204H127.204H127.205H127.205H127.205H127.205H127.205H127.205H127.205H127.205H127.205H127.206H127.206H127.206H127.206H127.206H127.206H127.206H127.206H127.206H127.206H127.207H127.207H127.207H127.207H127.207H127.207H127.207H127.207H127.207H127.208H127.208H127.208H127.208H127.208H127.208H127.208H127.208H127.208H127.208H127.209H127.209H127.209H127.209H127.209H127.209H127.209H127.209H127.209H127.21H127.21H127.21H127.21H127.21H127.21H127.21H127.21H127.21H127.211H127.211H127.211H127.211H127.211H127.211H127.211H127.211H127.211H127.211H127.212H127.212H127.212H127.212H127.212H127.212H127.212H127.212H127.212H127.213H127.213H127.213H127.213H127.213H127.213H127.213H127.213H127.213H127.214H127.214H127.214H127.214H127.214H127.214H127.214H127.214H127.214H127.214H127.215H127.215H127.215H127.215H127.215H127.215H127.215H127.215H127.215H127.216H127.216H127.216H127.216H127.216H127.216H127.216H127.216H127.216H127.217H127.217H127.217H127.217H127.217H127.217H127.217H127.217H127.217H127.217H127.218H127.218H127.218H127.218H127.218H127.218H127.218H127.218H127.218H127.219H127.219H127.219H127.219H127.219H127.219H127.219H127.219H127.219H127.22H127.22H127.22H127.22H127.22H127.22H127.22H127.22H127.22H127.221H127.221H127.221H127.221H127.221H127.221H127.221H127.221H127.221H127.222H127.222H127.222H127.222H127.222H127.222H127.222H127.222H127.222H127.223H127.223H127.223H127.223H127.223H127.223H127.223H127.223H127.223H127.224H127.224H127.224H127.224H127.224H127.224H127.224H127.224H127.224H127.225H127.225H127.225H127.225H127.225H127.225H127.225H127.225H127.225H127.226H127.226H127.226H127.226H127.226H127.226H127.226H127.226H127.226H127.227H127.227H127.227H127.227H127.227H127.227H127.227H127.227H127.227H127.228H127.228H127.228H127.228H127.228H127.228H127.228H127.228H127.228H127.229H127.229H127.229H127.229H127.229H127.229H127.229H127.229H127.229H127.23H127.23H127.23H127.23H127.23H127.23H127.23H127.23H127.231H127.231H127.231H127.231H127.231H127.231H127.231H127.231H127.231H127.232H127.232H127.232H127.232H127.232H127.232H127.232H127.232H127.232H127.233H127.233H127.233H127.233H127.233H127.233H127.233H127.233H127.234H127.234H127.234H127.234H127.234H127.234H127.234H127.234H127.234H127.235H127.235H127.247L127.259 97.5433C127.731 97.4978 128.072 97.0821 128.032 96.6156L128.032 96.6144C127.997 96.2162 128.062 95.6599 128.202 95.0095C128.34 94.3641 128.547 93.6456 128.781 92.9312C129.247 91.5024 129.816 90.1054 130.142 89.3715L130.142 89.3715L130.144 89.3662C130.145 89.3651 130.146 89.3622 130.148 89.3573C130.193 89.2414 130.661 88.0494 131.522 86.7352C132.424 85.3578 133.727 83.8934 135.384 83.3595L135.386 83.359C135.834 83.2114 136.08 82.7332 135.937 82.2836Z" fill="white" stroke="white" stroke-width="0.5"/>
<path d="M115.513 87.6636L115.513 87.6636C116.789 88.4476 118.187 88.8622 119.69 88.9034V88.9109H119.94C121.454 88.9109 123.07 88.5377 124.768 87.801L124.77 87.8003C124.957 87.7175 125.12 87.5703 125.208 87.3699L125.21 87.3668C125.283 87.2019 126.007 85.5815 126.32 83.3429C126.637 81.0853 126.539 78.1751 124.911 75.4959C122.355 71.2873 116.842 69.0027 108.66 68.6142L108.66 68.6142L108.659 68.6142C108.406 68.603 108.181 68.6949 108.011 68.8647C107.841 69.0354 107.748 69.2746 107.765 69.5174C107.782 69.817 108.013 73.2864 109.081 77.2043C110.147 81.1139 112.067 85.5461 115.513 87.6636ZM109.565 70.3833C116.713 70.8704 121.343 72.918 123.451 76.381L123.451 76.381C124.682 78.4027 124.867 80.6491 124.684 82.5382C124.511 84.3213 124.012 85.7674 123.778 86.3679C120.905 87.5318 118.441 87.4605 116.412 86.2129L116.281 86.4258L116.412 86.2129C113.811 84.613 112.152 81.2973 111.111 77.9845C110.143 74.9046 109.726 71.8816 109.565 70.3833Z" fill="white" stroke="white" stroke-width="0.5"/>
<path d="M126.319 96.1177C126.331 96.4483 126.529 96.7299 126.81 96.8624L126.766 96.9515H127.17H127.17H127.17H127.17H127.17H127.17H127.17H127.17H127.171H127.171H127.171H127.171H127.171H127.171H127.171H127.171H127.171H127.171H127.171H127.171H127.171H127.171H127.171H127.171H127.171H127.171H127.171H127.171H127.171H127.171H127.172H127.172H127.172H127.172H127.172H127.172H127.172H127.172H127.172H127.172H127.172H127.172H127.172H127.172H127.172H127.172H127.172H127.172H127.172H127.172H127.172H127.172H127.172H127.173H127.173H127.173H127.173H127.173H127.173H127.173H127.173H127.173H127.173H127.173H127.173H127.173H127.173H127.173H127.173H127.173H127.173H127.173H127.173H127.173H127.173H127.173H127.173H127.174H127.174H127.174H127.174H127.174H127.174H127.174H127.174H127.174H127.174H127.174H127.174H127.174H127.174H127.174H127.174H127.174H127.174H127.174H127.174H127.174H127.174H127.174H127.174H127.174H127.175H127.175H127.175H127.175H127.175H127.175H127.175H127.175H127.175H127.175H127.175H127.175H127.175H127.175H127.175H127.175H127.175H127.175H127.175H127.175H127.175H127.175H127.175H127.175H127.175H127.176H127.176H127.176H127.176H127.176H127.176H127.176H127.176H127.176H127.176H127.176H127.176H127.176H127.176H127.176H127.176H127.176H127.176H127.176H127.176H127.176H127.176H127.176H127.176H127.176H127.176H127.176H127.177H127.177H127.177H127.177H127.177H127.177H127.177H127.177H127.177H127.177H127.177H127.177H127.177H127.177H127.177H127.177H127.177H127.177H127.177H127.177H127.177H127.177H127.177H127.177H127.177H127.177H127.177H127.178H127.178H127.178H127.178H127.178H127.178H127.178H127.178H127.178H127.178H127.178H127.178H127.178H127.178H127.178H127.178H127.178H127.178H127.178H127.178H127.178H127.178H127.178H127.178H127.178H127.178H127.178H127.179H127.179H127.179H127.179H127.179H127.179H127.179H127.179H127.179H127.179H127.179H127.179H127.179H127.179H127.179H127.179H127.179H127.179H127.179H127.179H127.179H127.179H127.179H127.179H127.179H127.179H127.179H127.179H127.18H127.18H127.18H127.18H127.18H127.18H127.18H127.18H127.18H127.18H127.18H127.18H127.18H127.18H127.18H127.18H127.18H127.18H127.18H127.18H127.18H127.18H127.18H127.18H127.18H127.18H127.18H127.18H127.18H127.181H127.181H127.181H127.181H127.181H127.181H127.181H127.181H127.181H127.181H127.181H127.181H127.181H127.181H127.181H127.181H127.181H127.181H127.181H127.181H127.181H127.181H127.181H127.181H127.181H127.181H127.181H127.181H127.182H127.182H127.182H127.182H127.182H127.182H127.182H127.182H127.182H127.182H127.182H127.182H127.182H127.182H127.182H127.182H127.182H127.182H127.182H127.182H127.182H127.182H127.182H127.182H127.182H127.182H127.182H127.182H127.183H127.183H127.183H127.183H127.183H127.183H127.183H127.183H127.183H127.183H127.183H127.183H127.183H127.183H127.183H127.183H127.183H127.183H127.183H127.183H127.183H127.183H127.183H127.183H127.183H127.183H127.183H127.184H127.184H127.184H127.184H127.184H127.184H127.184H127.184H127.184H127.184H127.184H127.184H127.184H127.184H127.184H127.184H127.184H127.184H127.184H127.184H127.184H127.184H127.184H127.184H127.184H127.184H127.184H127.185H127.185H127.185H127.185H127.185H127.185H127.185H127.185H127.185H127.185H127.185H127.185H127.185H127.185H127.185H127.185H127.185H127.185H127.185H127.185H127.185H127.185H127.185H127.185H127.185H127.185H127.186H127.186H127.186H127.186H127.186H127.186H127.186H127.186H127.186H127.186H127.186H127.186H127.186H127.186H127.186H127.186H127.186H127.186H127.186H127.186H127.186H127.186H127.186H127.186H127.186H127.187H127.187H127.187H127.187H127.187H127.187H127.187H127.187H127.187H127.187H127.187H127.187H127.187H127.187H127.187H127.187H127.187H127.187H127.187H127.187H127.187H127.187H127.187H127.187H127.188H127.188H127.188H127.188H127.188H127.188H127.188H127.188H127.188H127.188H127.188H127.188H127.188H127.188H127.188H127.188H127.188H127.188H127.188H127.188H127.188H127.188H127.188H127.189H127.189H127.189H127.189H127.189H127.189H127.189H127.189H127.189H127.189H127.189H127.189H127.189H127.189H127.189H127.189H127.189H127.189H127.189H127.189H127.189H127.189H127.19H127.19H127.19H127.19H127.19H127.19H127.19H127.19H127.19H127.19H127.19H127.19H127.19H127.19H127.19H127.19H127.19H127.19V96.9517L127.199 96.9513C127.67 96.9343 128.042 96.5423 128.025 96.0681C127.971 94.4113 127.289 92.115 126.62 90.2295C125.963 88.3776 125.308 86.8871 125.231 86.7179C125.155 86.5131 124.487 84.7705 123.214 82.8652C121.923 80.9325 119.984 78.7945 117.375 77.9618C116.922 77.8135 116.443 78.0666 116.301 78.5151C116.159 78.9599 116.403 79.4444 116.855 79.5876C119.018 80.277 120.707 82.1703 121.869 83.9435C122.447 84.8254 122.888 85.667 123.187 86.2945C123.336 86.6081 123.45 86.8676 123.527 87.0514C123.565 87.1432 123.595 87.2161 123.615 87.2672C123.625 87.2927 123.633 87.3128 123.638 87.327L123.645 87.3437C123.646 87.3481 123.647 87.3498 123.647 87.3497L123.649 87.3566L123.652 87.3635C123.653 87.3647 123.654 87.3682 123.657 87.3741C123.717 87.5122 124.335 88.9237 124.961 90.6712C125.618 92.5037 126.27 94.6662 126.319 96.1169L126.319 96.1177Z" fill="white" stroke="white" stroke-width="0.5"/>
</svg>
